<svg xmlns="http://www.w3.org/2000/svg" viewBox="57.599999999999994 57.599999999999994 1036.8 1036.8"><line stroke="#000" opacity="1" x1="1008" y1="1008" x2="144" y2="1008" stroke-width="2.88"/><line stroke="#000" opacity="1" x1="144" y1="1008" x2="144" y2="144" stroke-width="2.88"/><line stroke="#000" opacity="1" x1="144" y1="144" x2="1008" y2="144" stroke-width="2.88"/><line stroke="#000" opacity="1" x1="1008" y1="144" x2="1008" y2="1008" stroke-width="2.88"/><line stroke="#f00" opacity="1" x1="666" y1="486" x2="486" y2="486" stroke-width="2.88"/><line stroke="#f00" opacity="1" x1="486" y1="486" x2="486" y2="666" stroke-width="2.88"/><line stroke="#f00" opacity="1" x1="486" y1="666" x2="666" y2="666" stroke-width="2.88"/><line stroke="#f00" opacity="1" x1="666" y1="666" x2="666" y2="486" stroke-width="2.88"/><line stroke="#f00" opacity="1" x1="990" y1="990" x2="162" y2="990" stroke-width="2.88"/><line stroke="#f00" opacity="1" x1="162" y1="990" x2="162" y2="162" stroke-width="2.88"/><line stroke="#f00" opacity="1" x1="162" y1="162" x2="990" y2="162" stroke-width="2.88"/><line stroke="#f00" opacity="1" x1="990" y1="162" x2="990" y2="990" stroke-width="2.88"/><line stroke="#f00" opacity="1" x1="954" y1="198" x2="198" y2="198" stroke-width="2.88"/><line stroke="#f00" opacity="1" x1="198" y1="198" x2="198" y2="954" stroke-width="2.88"/><line stroke="#f00" opacity="1" x1="198" y1="954" x2="954" y2="954" stroke-width="2.88"/><line stroke="#f00" opacity="1" x1="954" y1="954" x2="954" y2="198" stroke-width="2.88"/><line stroke="#f00" opacity="1" x1="918" y1="234" x2="234" y2="234" stroke-width="2.88"/><line stroke="#f00" opacity="1" x1="234" y1="234" x2="234" y2="918" stroke-width="2.88"/><line stroke="#f00" opacity="1" x1="234" y1="918" x2="918" y2="918" stroke-width="2.88"/><line stroke="#f00" opacity="1" x1="918" y1="918" x2="918" y2="234" stroke-width="2.88"/><line stroke="#f00" opacity="1" x1="846" y1="306" x2="306" y2="306" stroke-width="2.88"/><line stroke="#f00" opacity="1" x1="306" y1="306" x2="306" y2="846" stroke-width="2.88"/><line stroke="#f00" opacity="1" x1="306" y1="846" x2="846" y2="846" stroke-width="2.88"/><line stroke="#f00" opacity="1" x1="846" y1="846" x2="846" y2="306" stroke-width="2.88"/><line stroke="#f00" opacity="1" x1="882" y1="270" x2="270" y2="270" stroke-width="2.88"/><line stroke="#f00" opacity="1" x1="270" y1="270" x2="270" y2="882" stroke-width="2.88"/><line stroke="#f00" opacity="1" x1="270" y1="882" x2="882" y2="882" stroke-width="2.88"/><line stroke="#f00" opacity="1" x1="882" y1="882" x2="882" y2="270" stroke-width="2.88"/><line stroke="#f00" opacity="1" x1="810" y1="342" x2="342" y2="342" stroke-width="2.88"/><line stroke="#f00" opacity="1" x1="342" y1="342" x2="342" y2="810" stroke-width="2.88"/><line stroke="#f00" opacity="1" x1="342" y1="810" x2="810" y2="810" stroke-width="2.88"/><line stroke="#f00" opacity="1" x1="810" y1="810" x2="810" y2="342" stroke-width="2.88"/><line stroke="#f00" opacity="1" x1="774" y1="378" x2="378" y2="378" stroke-width="2.88"/><line stroke="#f00" opacity="1" x1="378" y1="378" x2="378" y2="774" stroke-width="2.88"/><line stroke="#f00" opacity="1" x1="378" y1="774" x2="774" y2="774" stroke-width="2.88"/><line stroke="#f00" opacity="1" x1="774" y1="774" x2="774" y2="378" stroke-width="2.88"/><line stroke="#f00" opacity="1" x1="738" y1="414" x2="414" y2="414" stroke-width="2.88"/><line stroke="#f00" opacity="1" x1="414" y1="414" x2="414" y2="738" stroke-width="2.88"/><line stroke="#f00" opacity="1" x1="414" y1="738" x2="738" y2="738" stroke-width="2.88"/><line stroke="#f00" opacity="1" x1="738" y1="738" x2="738" y2="414" stroke-width="2.88"/><line stroke="#f00" opacity="1" x1="702" y1="450" x2="450" y2="450" stroke-width="2.88"/><line stroke="#f00" opacity="1" x1="450" y1="450" x2="450" y2="702" stroke-width="2.88"/><line stroke="#f00" opacity="1" x1="450" y1="702" x2="702" y2="702" stroke-width="2.88"/><line stroke="#f00" opacity="1" x1="702" y1="702" x2="702" y2="450" stroke-width="2.88"/><line stroke="#f00" opacity="1" x1="1008" y1="1008" x2="990" y2="990" stroke-width="2.88"/><line stroke="#f00" opacity="1" x1="972" y1="972" x2="954" y2="954" stroke-width="2.88"/><line stroke="#f00" opacity="1" x1="936" y1="936" x2="918" y2="918" stroke-width="2.88"/><line stroke="#f00" opacity="1" x1="900" y1="900" x2="882" y2="882" stroke-width="2.88"/><line stroke="#f00" opacity="1" x1="864" y1="864" x2="846" y2="846" stroke-width="2.88"/><line stroke="#f00" opacity="1" x1="828" y1="828" x2="810" y2="810" stroke-width="2.88"/><line stroke="#f00" opacity="1" x1="792" y1="792" x2="774" y2="774" stroke-width="2.88"/><line stroke="#f00" opacity="1" x1="756" y1="756" x2="738" y2="738" stroke-width="2.88"/><line stroke="#f00" opacity="1" x1="720" y1="720" x2="702" y2="702" stroke-width="2.88"/><line stroke="#f00" opacity="1" x1="486" y1="486" x2="468" y2="468" stroke-width="2.88"/><line stroke="#f00" opacity="1" x1="450" y1="450" x2="432" y2="432" stroke-width="2.88"/><line stroke="#f00" opacity="1" x1="414" y1="414" x2="396" y2="396" stroke-width="2.88"/><line stroke="#f00" opacity="1" x1="378" y1="378" x2="360" y2="360" stroke-width="2.88"/><line stroke="#f00" opacity="1" x1="342" y1="342" x2="324" y2="324" stroke-width="2.88"/><line stroke="#f00" opacity="1" x1="306" y1="306" x2="288" y2="288" stroke-width="2.88"/><line stroke="#f00" opacity="1" x1="270" y1="270" x2="252" y2="252" stroke-width="2.88"/><line stroke="#f00" opacity="1" x1="234" y1="234" x2="216" y2="216" stroke-width="2.88"/><line stroke="#f00" opacity="1" x1="198" y1="198" x2="180" y2="180" stroke-width="2.88"/><line stroke="#f00" opacity="1" x1="162" y1="162" x2="144" y2="144" stroke-width="2.88"/><line stroke="#f00" opacity="1" x1="1008" y1="144" x2="990" y2="162" stroke-width="2.88"/><line stroke="#f00" opacity="1" x1="972" y1="180" x2="954" y2="198" stroke-width="2.88"/><line stroke="#f00" opacity="1" x1="936" y1="216" x2="918" y2="234" stroke-width="2.88"/><line stroke="#f00" opacity="1" x1="900" y1="252" x2="882" y2="270" stroke-width="2.88"/><line stroke="#f00" opacity="1" x1="864" y1="288" x2="846" y2="306" stroke-width="2.88"/><line stroke="#f00" opacity="1" x1="828" y1="324" x2="810" y2="342" stroke-width="2.88"/><line stroke="#f00" opacity="1" x1="792" y1="360" x2="774" y2="378" stroke-width="2.88"/><line stroke="#f00" opacity="1" x1="756" y1="396" x2="738" y2="414" stroke-width="2.88"/><line stroke="#f00" opacity="1" x1="720" y1="432" x2="702" y2="450" stroke-width="2.88"/><line stroke="#f00" opacity="1" x1="684" y1="468" x2="666" y2="486" stroke-width="2.88"/><line stroke="#f00" opacity="1" x1="144" y1="1008" x2="162" y2="990" stroke-width="2.88"/><line stroke="#f00" opacity="1" x1="180" y1="972" x2="198" y2="954" stroke-width="2.88"/><line stroke="#f00" opacity="1" x1="216" y1="936" x2="234" y2="918" stroke-width="2.88"/><line stroke="#f00" opacity="1" x1="252" y1="900" x2="270" y2="882" stroke-width="2.88"/><line stroke="#f00" opacity="1" x1="288" y1="864" x2="306" y2="846" stroke-width="2.88"/><line stroke="#f00" opacity="1" x1="324" y1="828" x2="342" y2="810" stroke-width="2.88"/><line stroke="#f00" opacity="1" x1="360" y1="792" x2="378" y2="774" stroke-width="2.88"/><line stroke="#f00" opacity="1" x1="396" y1="756" x2="414" y2="738" stroke-width="2.88"/><line stroke="#f00" opacity="1" x1="432" y1="720" x2="450" y2="702" stroke-width="2.88"/><line stroke="#f00" opacity="1" x1="468" y1="684" x2="486" y2="666" stroke-width="2.88"/><line stroke="#f00" opacity="1" x1="666" y1="666" x2="684" y2="684" stroke-width="2.88"/><line stroke="#f00" opacity="1" x1="629.1680297851562" y1="524.833984375" x2="522" y2="522" stroke-width="2.88"/><line stroke="#f00" opacity="1" x1="522" y1="522" x2="522" y2="630" stroke-width="2.88"/><line stroke="#f00" opacity="1" x1="522" y1="630" x2="630" y2="630" stroke-width="2.88"/><line stroke="#f00" opacity="1" x1="630" y1="630" x2="629.1680297851562" y2="524.833984375" stroke-width="2.88"/><line stroke="#f00" opacity="1" x1="594" y1="558" x2="558" y2="558" stroke-width="2.88"/><line stroke="#f00" opacity="1" x1="558" y1="558" x2="558" y2="594" stroke-width="2.88"/><line stroke="#f00" opacity="1" x1="558" y1="594" x2="594" y2="594" stroke-width="2.88"/><line stroke="#f00" opacity="1" x1="594" y1="594" x2="594" y2="558" stroke-width="2.88"/><line stroke="#f00" opacity="1" x1="648" y1="504" x2="629.1680297851562" y2="524.833984375" stroke-width="2.88"/><line stroke="#f00" opacity="1" x1="612" y1="540" x2="594" y2="558" stroke-width="2.88"/><line stroke="#f00" opacity="1" x1="648" y1="648" x2="630" y2="630" stroke-width="2.88"/><line stroke="#f00" opacity="1" x1="594" y1="594" x2="612" y2="612" stroke-width="2.88"/><line stroke="#f00" opacity="1" x1="558" y1="594" x2="540" y2="612" stroke-width="2.88"/><line stroke="#f00" opacity="1" x1="504" y1="648" x2="522" y2="630" stroke-width="2.88"/><line stroke="#f00" opacity="1" x1="504" y1="504" x2="522" y2="522" stroke-width="2.88"/><line stroke="#f00" opacity="1" x1="540" y1="540" x2="558" y2="558" stroke-width="2.88"/><line stroke="#00f" opacity="1" x1="972" y1="972" x2="180" y2="972" stroke-width="2.88"/><line stroke="#00f" opacity="1" x1="180" y1="972" x2="180" y2="180" stroke-width="2.88"/><line stroke="#00f" opacity="1" x1="180" y1="180" x2="972" y2="180" stroke-width="2.88"/><line stroke="#00f" opacity="1" x1="972" y1="180" x2="972" y2="972" stroke-width="2.88"/><line stroke="#00f" opacity="1" x1="936" y1="216" x2="216" y2="216" stroke-width="2.88"/><line stroke="#00f" opacity="1" x1="216" y1="216" x2="216" y2="936" stroke-width="2.88"/><line stroke="#00f" opacity="1" x1="216" y1="936" x2="936" y2="936" stroke-width="2.88"/><line stroke="#00f" opacity="1" x1="936" y1="936" x2="936" y2="216" stroke-width="2.88"/><line stroke="#00f" opacity="1" x1="900" y1="252" x2="252" y2="252" stroke-width="2.88"/><line stroke="#00f" opacity="1" x1="252" y1="252" x2="252" y2="900" stroke-width="2.88"/><line stroke="#00f" opacity="1" x1="252" y1="900" x2="900" y2="900" stroke-width="2.88"/><line stroke="#00f" opacity="1" x1="900" y1="900" x2="900" y2="252" stroke-width="2.88"/><line stroke="#00f" opacity="1" x1="864" y1="288" x2="288" y2="288" stroke-width="2.88"/><line stroke="#00f" opacity="1" x1="288" y1="288" x2="288" y2="864" stroke-width="2.88"/><line stroke="#00f" opacity="1" x1="288" y1="864" x2="864" y2="864" stroke-width="2.88"/><line stroke="#00f" opacity="1" x1="864" y1="864" x2="864" y2="288" stroke-width="2.88"/><line stroke="#00f" opacity="1" x1="828" y1="324" x2="324" y2="324" stroke-width="2.88"/><line stroke="#00f" opacity="1" x1="324" y1="324" x2="324" y2="828" stroke-width="2.88"/><line stroke="#00f" opacity="1" x1="324" y1="828" x2="828" y2="828" stroke-width="2.88"/><line stroke="#00f" opacity="1" x1="828" y1="828" x2="828" y2="324" stroke-width="2.88"/><line stroke="#00f" opacity="1" x1="792" y1="360" x2="360" y2="360" stroke-width="2.88"/><line stroke="#00f" opacity="1" x1="360" y1="360" x2="360" y2="792" stroke-width="2.88"/><line stroke="#00f" opacity="1" x1="360" y1="792" x2="792" y2="792" stroke-width="2.88"/><line stroke="#00f" opacity="1" x1="792" y1="792" x2="792" y2="360" stroke-width="2.88"/><line stroke="#00f" opacity="1" x1="756" y1="396" x2="396" y2="396" stroke-width="2.88"/><line stroke="#00f" opacity="1" x1="396" y1="396" x2="396" y2="756" stroke-width="2.88"/><line stroke="#00f" opacity="1" x1="396" y1="756" x2="756" y2="756" stroke-width="2.88"/><line stroke="#00f" opacity="1" x1="756" y1="756" x2="756" y2="396" stroke-width="2.88"/><line stroke="#00f" opacity="1" x1="720" y1="432" x2="432" y2="432" stroke-width="2.88"/><line stroke="#00f" opacity="1" x1="432" y1="432" x2="432" y2="720" stroke-width="2.88"/><line stroke="#00f" opacity="1" x1="432" y1="720" x2="720" y2="720" stroke-width="2.88"/><line stroke="#00f" opacity="1" x1="720" y1="720" x2="720" y2="432" stroke-width="2.88"/><line stroke="#00f" opacity="1" x1="684" y1="468" x2="468" y2="468" stroke-width="2.88"/><line stroke="#00f" opacity="1" x1="468" y1="468" x2="468" y2="684" stroke-width="2.88"/><line stroke="#00f" opacity="1" x1="468" y1="684" x2="684" y2="684" stroke-width="2.88"/><line stroke="#00f" opacity="1" x1="684" y1="684" x2="684" y2="468" stroke-width="2.88"/><line stroke="#00f" opacity="1" x1="990" y1="990" x2="972" y2="972" stroke-width="2.88"/><line stroke="#00f" opacity="1" x1="954" y1="954" x2="936" y2="936" stroke-width="2.88"/><line stroke="#00f" opacity="1" x1="918" y1="918" x2="900" y2="900" stroke-width="2.88"/><line stroke="#00f" opacity="1" x1="882" y1="882" x2="864" y2="864" stroke-width="2.88"/><line stroke="#00f" opacity="1" x1="846" y1="846" x2="828" y2="828" stroke-width="2.88"/><line stroke="#00f" opacity="1" x1="810" y1="810" x2="792" y2="792" stroke-width="2.88"/><line stroke="#00f" opacity="1" x1="774" y1="774" x2="756" y2="756" stroke-width="2.88"/><line stroke="#00f" opacity="1" x1="738" y1="738" x2="720" y2="720" stroke-width="2.88"/><line stroke="#00f" opacity="1" x1="702" y1="702" x2="684" y2="684" stroke-width="2.88"/><line stroke="#00f" opacity="1" x1="468" y1="468" x2="450" y2="450" stroke-width="2.88"/><line stroke="#00f" opacity="1" x1="432" y1="432" x2="414" y2="414" stroke-width="2.88"/><line stroke="#00f" opacity="1" x1="396" y1="396" x2="378" y2="378" stroke-width="2.88"/><line stroke="#00f" opacity="1" x1="360" y1="360" x2="342" y2="342" stroke-width="2.88"/><line stroke="#00f" opacity="1" x1="324" y1="324" x2="306" y2="306" stroke-width="2.88"/><line stroke="#00f" opacity="1" x1="288" y1="288" x2="270" y2="270" stroke-width="2.88"/><line stroke="#00f" opacity="1" x1="252" y1="252" x2="234" y2="234" stroke-width="2.88"/><line stroke="#00f" opacity="1" x1="216" y1="216" x2="198" y2="198" stroke-width="2.88"/><line stroke="#00f" opacity="1" x1="180" y1="180" x2="162" y2="162" stroke-width="2.88"/><line stroke="#00f" opacity="1" x1="990" y1="162" x2="972" y2="180" stroke-width="2.88"/><line stroke="#00f" opacity="1" x1="954" y1="198" x2="936" y2="216" stroke-width="2.88"/><line stroke="#00f" opacity="1" x1="918" y1="234" x2="900" y2="252" stroke-width="2.88"/><line stroke="#00f" opacity="1" x1="882" y1="270" x2="864" y2="288" stroke-width="2.88"/><line stroke="#00f" opacity="1" x1="846" y1="306" x2="828" y2="324" stroke-width="2.88"/><line stroke="#00f" opacity="1" x1="810" y1="342" x2="792" y2="360" stroke-width="2.88"/><line stroke="#00f" opacity="1" x1="774" y1="378" x2="756" y2="396" stroke-width="2.88"/><line stroke="#00f" opacity="1" x1="738" y1="414" x2="720" y2="432" stroke-width="2.88"/><line stroke="#00f" opacity="1" x1="702" y1="450" x2="684" y2="468" stroke-width="2.88"/><line stroke="#00f" opacity="1" x1="162" y1="990" x2="180" y2="972" stroke-width="2.88"/><line stroke="#00f" opacity="1" x1="198" y1="954" x2="216" y2="936" stroke-width="2.88"/><line stroke="#00f" opacity="1" x1="234" y1="918" x2="252" y2="900" stroke-width="2.88"/><line stroke="#00f" opacity="1" x1="270" y1="882" x2="288" y2="864" stroke-width="2.88"/><line stroke="#00f" opacity="1" x1="306" y1="846" x2="324" y2="828" stroke-width="2.88"/><line stroke="#00f" opacity="1" x1="342" y1="810" x2="360" y2="792" stroke-width="2.88"/><line stroke="#00f" opacity="1" x1="378" y1="774" x2="396" y2="756" stroke-width="2.88"/><line stroke="#00f" opacity="1" x1="414" y1="738" x2="432" y2="720" stroke-width="2.88"/><line stroke="#00f" opacity="1" x1="450" y1="702" x2="468" y2="684" stroke-width="2.88"/><line stroke="#00f" opacity="1" x1="648" y1="504" x2="504" y2="504" stroke-width="2.88"/><line stroke="#00f" opacity="1" x1="504" y1="504" x2="504" y2="648" stroke-width="2.88"/><line stroke="#00f" opacity="1" x1="504" y1="648" x2="648" y2="648" stroke-width="2.88"/><line stroke="#00f" opacity="1" x1="648" y1="648" x2="648" y2="504" stroke-width="2.88"/><line stroke="#00f" opacity="1" x1="612" y1="540" x2="540" y2="540" stroke-width="2.88"/><line stroke="#00f" opacity="1" x1="540" y1="540" x2="540" y2="612" stroke-width="2.88"/><line stroke="#00f" opacity="1" x1="540" y1="612" x2="612" y2="612" stroke-width="2.88"/><line stroke="#00f" opacity="1" x1="612" y1="612" x2="612" y2="540" stroke-width="2.88"/><line stroke="#00f" opacity="1" x1="666" y1="486" x2="648" y2="504" stroke-width="2.88"/><line stroke="#00f" opacity="1" x1="629.1680297851562" y1="524.833984375" x2="612" y2="540" stroke-width="2.88"/><line stroke="#00f" opacity="1" x1="666" y1="666" x2="648" y2="648" stroke-width="2.88"/><line stroke="#00f" opacity="1" x1="630" y1="630" x2="612" y2="612" stroke-width="2.88"/><line stroke="#00f" opacity="1" x1="486" y1="666" x2="504" y2="648" stroke-width="2.88"/><line stroke="#00f" opacity="1" x1="522" y1="630" x2="540" y2="612" stroke-width="2.88"/><line stroke="#00f" opacity="1" x1="486" y1="486" x2="504" y2="504" stroke-width="2.88"/><line stroke="#00f" opacity="1" x1="522" y1="522" x2="540" y2="540" stroke-width="2.88"/><line stroke="#f0f" opacity="1" x1="576" y1="576" x2="558" y2="558" stroke-width="2.88"/><line stroke="#f0f" opacity="1" x1="576" y1="576" x2="594" y2="594" stroke-width="2.88"/><line stroke="#f0f" opacity="1" x1="576" y1="576" x2="558" y2="594" stroke-width="2.88"/><line stroke="#f0f" opacity="1" x1="576" y1="576" x2="594" y2="558" stroke-width="2.88"/><line stroke="#f0f" opacity="1" x1="162" y1="990" x2="144" y2="144" stroke-width="2.88"/><line stroke="#f0f" opacity="1" x1="972" y1="972" x2="162" y2="990" stroke-width="2.88"/><line stroke="#f0f" opacity="1" x1="198" y1="954" x2="180" y2="180" stroke-width="2.88"/><line stroke="#f0f" opacity="1" x1="936" y1="936" x2="198" y2="954" stroke-width="2.88"/><line stroke="#f0f" opacity="1" x1="234" y1="918" x2="216" y2="216" stroke-width="2.88"/><line stroke="#f0f" opacity="1" x1="900" y1="900" x2="234" y2="918" stroke-width="2.88"/><line stroke="#f0f" opacity="1" x1="270" y1="882" x2="252" y2="252" stroke-width="2.88"/><line stroke="#f0f" opacity="1" x1="864" y1="864" x2="270" y2="882" stroke-width="2.88"/><line stroke="#f0f" opacity="1" x1="306" y1="846" x2="288" y2="288" stroke-width="2.88"/><line stroke="#f0f" opacity="1" x1="828" y1="828" x2="306" y2="846" stroke-width="2.88"/><line stroke="#f0f" opacity="1" x1="342" y1="810" x2="324" y2="324" stroke-width="2.88"/><line stroke="#f0f" opacity="1" x1="792" y1="792" x2="342" y2="810" stroke-width="2.88"/><line stroke="#f0f" opacity="1" x1="378" y1="774" x2="360" y2="360" stroke-width="2.88"/><line stroke="#f0f" opacity="1" x1="756" y1="756" x2="378" y2="774" stroke-width="2.88"/><line stroke="#f0f" opacity="1" x1="414" y1="738" x2="396" y2="396" stroke-width="2.88"/><line stroke="#f0f" opacity="1" x1="720" y1="720" x2="414" y2="738" stroke-width="2.88"/><line stroke="#f0f" opacity="1" x1="450" y1="702" x2="432" y2="432" stroke-width="2.88"/><line stroke="#f0f" opacity="1" x1="684" y1="684" x2="450" y2="702" stroke-width="2.88"/><line stroke="#f0f" opacity="1" x1="486" y1="666" x2="468" y2="468" stroke-width="2.88"/><line stroke="#f0f" opacity="1" x1="144" y1="144" x2="990" y2="162" stroke-width="2.88"/><line stroke="#f0f" opacity="1" x1="162" y1="990" x2="180" y2="180" stroke-width="2.88"/><line stroke="#f0f" opacity="1" x1="180" y1="180" x2="954" y2="198" stroke-width="2.88"/><line stroke="#f0f" opacity="1" x1="198" y1="954" x2="216" y2="216" stroke-width="2.88"/><line stroke="#f0f" opacity="1" x1="216" y1="216" x2="918" y2="234" stroke-width="2.88"/><line stroke="#f0f" opacity="1" x1="234" y1="918" x2="252" y2="252" stroke-width="2.88"/><line stroke="#f0f" opacity="1" x1="252" y1="252" x2="882" y2="270" stroke-width="2.88"/><line stroke="#f0f" opacity="1" x1="270" y1="882" x2="288" y2="288" stroke-width="2.88"/><line stroke="#f0f" opacity="1" x1="288" y1="288" x2="846" y2="306" stroke-width="2.88"/><line stroke="#f0f" opacity="1" x1="306" y1="846" x2="324" y2="324" stroke-width="2.88"/><line stroke="#f0f" opacity="1" x1="324" y1="324" x2="810" y2="342" stroke-width="2.88"/><line stroke="#f0f" opacity="1" x1="342" y1="810" x2="360" y2="360" stroke-width="2.88"/><line stroke="#f0f" opacity="1" x1="360" y1="360" x2="774" y2="378" stroke-width="2.88"/><line stroke="#f0f" opacity="1" x1="378" y1="774" x2="396" y2="396" stroke-width="2.88"/><line stroke="#f0f" opacity="1" x1="396" y1="396" x2="738" y2="414" stroke-width="2.88"/><line stroke="#f0f" opacity="1" x1="414" y1="738" x2="432" y2="432" stroke-width="2.88"/><line stroke="#f0f" opacity="1" x1="432" y1="432" x2="702" y2="450" stroke-width="2.88"/><line stroke="#f0f" opacity="1" x1="450" y1="702" x2="468" y2="468" stroke-width="2.88"/><line stroke="#f0f" opacity="1" x1="468" y1="468" x2="666" y2="486" stroke-width="2.88"/><line stroke="#f0f" opacity="1" x1="990" y1="162" x2="1008" y2="1008" stroke-width="2.88"/><line stroke="#f0f" opacity="1" x1="180" y1="180" x2="990" y2="162" stroke-width="2.88"/><line stroke="#f0f" opacity="1" x1="954" y1="198" x2="972" y2="972" stroke-width="2.88"/><line stroke="#f0f" opacity="1" x1="216" y1="216" x2="954" y2="198" stroke-width="2.88"/><line stroke="#f0f" opacity="1" x1="918" y1="234" x2="936" y2="936" stroke-width="2.88"/><line stroke="#f0f" opacity="1" x1="252" y1="252" x2="918" y2="234" stroke-width="2.88"/><line stroke="#f0f" opacity="1" x1="882" y1="270" x2="900" y2="900" stroke-width="2.88"/><line stroke="#f0f" opacity="1" x1="288" y1="288" x2="882" y2="270" stroke-width="2.88"/><line stroke="#f0f" opacity="1" x1="846" y1="306" x2="864" y2="864" stroke-width="2.88"/><line stroke="#f0f" opacity="1" x1="324" y1="324" x2="846" y2="306" stroke-width="2.88"/><line stroke="#f0f" opacity="1" x1="810" y1="342" x2="828" y2="828" stroke-width="2.88"/><line stroke="#f0f" opacity="1" x1="360" y1="360" x2="810" y2="342" stroke-width="2.88"/><line stroke="#f0f" opacity="1" x1="774" y1="378" x2="792" y2="792" stroke-width="2.88"/><line stroke="#f0f" opacity="1" x1="396" y1="396" x2="774" y2="378" stroke-width="2.88"/><line stroke="#f0f" opacity="1" x1="738" y1="414" x2="756" y2="756" stroke-width="2.88"/><line stroke="#f0f" opacity="1" x1="432" y1="432" x2="738" y2="414" stroke-width="2.88"/><line stroke="#f0f" opacity="1" x1="702" y1="450" x2="720" y2="720" stroke-width="2.88"/><line stroke="#f0f" opacity="1" x1="468" y1="468" x2="702" y2="450" stroke-width="2.88"/><line stroke="#f0f" opacity="1" x1="666" y1="486" x2="684" y2="684" stroke-width="2.88"/><line stroke="#f0f" opacity="1" x1="1008" y1="1008" x2="162" y2="990" stroke-width="2.88"/><line stroke="#f0f" opacity="1" x1="990" y1="162" x2="972" y2="972" stroke-width="2.88"/><line stroke="#f0f" opacity="1" x1="972" y1="972" x2="198" y2="954" stroke-width="2.88"/><line stroke="#f0f" opacity="1" x1="954" y1="198" x2="936" y2="936" stroke-width="2.88"/><line stroke="#f0f" opacity="1" x1="936" y1="936" x2="234" y2="918" stroke-width="2.88"/><line stroke="#f0f" opacity="1" x1="918" y1="234" x2="900" y2="900" stroke-width="2.88"/><line stroke="#f0f" opacity="1" x1="900" y1="900" x2="270" y2="882" stroke-width="2.88"/><line stroke="#f0f" opacity="1" x1="882" y1="270" x2="864" y2="864" stroke-width="2.88"/><line stroke="#f0f" opacity="1" x1="864" y1="864" x2="306" y2="846" stroke-width="2.88"/><line stroke="#f0f" opacity="1" x1="846" y1="306" x2="828" y2="828" stroke-width="2.88"/><line stroke="#f0f" opacity="1" x1="828" y1="828" x2="342" y2="810" stroke-width="2.88"/><line stroke="#f0f" opacity="1" x1="810" y1="342" x2="792" y2="792" stroke-width="2.88"/><line stroke="#f0f" opacity="1" x1="792" y1="792" x2="378" y2="774" stroke-width="2.88"/><line stroke="#f0f" opacity="1" x1="774" y1="378" x2="756" y2="756" stroke-width="2.88"/><line stroke="#f0f" opacity="1" x1="756" y1="756" x2="414" y2="738" stroke-width="2.88"/><line stroke="#f0f" opacity="1" x1="738" y1="414" x2="720" y2="720" stroke-width="2.88"/><line stroke="#f0f" opacity="1" x1="720" y1="720" x2="450" y2="702" stroke-width="2.88"/><line stroke="#f0f" opacity="1" x1="702" y1="450" x2="684" y2="684" stroke-width="2.88"/><line stroke="#f0f" opacity="1" x1="684" y1="684" x2="486" y2="666" stroke-width="2.88"/><line stroke="#f0f" opacity="1" x1="666" y1="486" x2="504" y2="504" stroke-width="2.88"/><line stroke="#f0f" opacity="1" x1="504" y1="504" x2="486" y2="666" stroke-width="2.88"/><line stroke="#f0f" opacity="1" x1="486" y1="666" x2="648" y2="648" stroke-width="2.88"/><line stroke="#f0f" opacity="1" x1="648" y1="648" x2="666" y2="486" stroke-width="2.88"/><line stroke="#f0f" opacity="1" x1="504" y1="504" x2="629.1680297851562" y2="524.833984375" stroke-width="2.88"/><line stroke="#f0f" opacity="1" x1="629.1680297851562" y1="524.833984375" x2="648" y2="648" stroke-width="2.88"/><line stroke="#f0f" opacity="1" x1="648" y1="648" x2="522" y2="630" stroke-width="2.88"/><line stroke="#f0f" opacity="1" x1="522" y1="630" x2="504" y2="504" stroke-width="2.88"/><line stroke="#f0f" opacity="1" x1="522" y1="630" x2="540" y2="540" stroke-width="2.88"/><line stroke="#f0f" opacity="1" x1="540" y1="540" x2="629.1680297851562" y2="524.833984375" stroke-width="2.88"/><line stroke="#f0f" opacity="1" x1="629.1680297851562" y1="524.833984375" x2="612" y2="612" stroke-width="2.88"/><line stroke="#f0f" opacity="1" x1="612" y1="612" x2="522" y2="630" stroke-width="2.88"/><line stroke="#f0f" opacity="1" x1="540" y1="540" x2="558" y2="594" stroke-width="2.88"/><line stroke="#f0f" opacity="1" x1="558" y1="594" x2="612" y2="612" stroke-width="2.88"/><line stroke="#f0f" opacity="1" x1="612" y1="612" x2="594" y2="558" stroke-width="2.88"/><line stroke="#f0f" opacity="1" x1="594" y1="558" x2="540" y2="540" stroke-width="2.88"/></svg>