<svg width="500" height="500" xmlns="http://www.w3.org/2000/svg"><rect width="500" height="500" fill="white"/><g transform="translate(20, 20) scale(1.15, 1.15)"><line x1="266.38554227664406" y1="229.7097838534817" x2="172.50754458161867" y2="240.2949245541838" stroke="red" stroke-width="2"/><line x1="239.15500685871058" y1="288.34156378600824" x2="294.96725177098017" y2="236.59375556064663" stroke="blue" stroke-width="2" stroke-dasharray="5,5"/><line x1="294.96725177098017" y1="236.59375556064663" x2="266.38554227664406" y2="229.7097838534817" stroke="red" stroke-width="2"/><line x1="119.83799919832727" y1="306.4479097298677" x2="239.15500685871058" y2="288.34156378600824" stroke="red" stroke-width="2"/><line x1="266.38554227664406" y1="229.7097838534817" x2="164.17009602194787" y2="133.6858710562414" stroke="blue" stroke-width="2" stroke-dasharray="5,5"/><line x1="164.17009602194787" y1="133.6858710562414" x2="172.50754458161867" y2="240.2949245541838" stroke="red" stroke-width="2"/><line x1="172.50754458161867" y1="240.2949245541838" x2="83.56508644180846" y2="266.75017091439037" stroke="blue" stroke-width="2" stroke-dasharray="5,5"/><line x1="83.56508644180846" y1="266.75017091439037" x2="119.83799919832727" y2="306.4479097298677" stroke="red" stroke-width="2"/><line x1="266.38554227664406" y1="229.7097838534817" x2="292.8099492996131" y2="133.46947682546696" stroke="red" stroke-width="2"/><line x1="294.96725177098017" y1="236.59375556064663" x2="292.8099492996131" y2="133.46947682546696" stroke="blue" stroke-width="2" stroke-dasharray="5,5"/><line x1="164.17009602194787" y1="133.6858710562414" x2="83.56508644180846" y2="266.75017091439037" stroke="red" stroke-width="2"/><line x1="290.46256380829567" y1="55.99351540465189" x2="102.19035529373753" y2="105.85436908624834" stroke="blue" stroke-width="2" stroke-dasharray="5,5"/><line x1="102.19035529373753" y1="105.85436908624834" x2="164.17009602194787" y2="133.6858710562414" stroke="red" stroke-width="2"/><line x1="164.17009602194787" y1="133.6858710562414" x2="290.46256380829567" y2="55.99351540465189" stroke="blue" stroke-width="2" stroke-dasharray="5,5"/><line x1="102.19035529373753" y1="105.85436908624834" x2="83.56508644180846" y2="266.75017091439037" stroke="red" stroke-width="2"/><line x1="292.8099492996131" y1="133.46947682546696" x2="290.46256380829567" y2="55.99351540465189" stroke="blue" stroke-width="2" stroke-dasharray="5,5"/><line x1="294.96725177098017" y1="236.59375556064663" x2="332.22796595283893" y2="56.90386237123686" stroke="red" stroke-width="2"/><line x1="332.22796595283893" y1="56.90386237123686" x2="292.8099492996131" y2="133.46947682546696" stroke="blue" stroke-width="2" stroke-dasharray="5,5"/><line x1="332.22796595283893" y1="56.90386237123686" x2="290.46256380829567" y2="55.99351540465189" stroke="red" stroke-width="2"/><line x1="119.83799919832727" y1="306.4479097298677" x2="400" y2="400" stroke="blue" stroke-width="2" stroke-dasharray="5,5"/><line x1="400" y1="400" x2="239.15500685871058" y2="288.34156378600824" stroke="red" stroke-width="2"/><line x1="400" y1="400" x2="294.96725177098017" y2="236.59375556064663" stroke="blue" stroke-width="2" stroke-dasharray="5,5"/><line x1="294.96725177098017" y1="236.59375556064663" x2="400" y2="0" stroke="red" stroke-width="2"/><line x1="400" y1="0" x2="332.22796595283893" y2="56.90386237123686" stroke="blue" stroke-width="2" stroke-dasharray="5,5"/><line x1="83.56508644180846" y1="266.75017091439037" x2="0" y2="400" stroke="red" stroke-width="2"/><line x1="0" y1="400" x2="119.83799919832727" y2="306.4479097298677" stroke="blue" stroke-width="2" stroke-dasharray="5,5"/><line x1="0" y1="400" x2="400" y2="400" stroke="black" stroke-width="3"/><line x1="0" y1="0" x2="0" y2="400" stroke="black" stroke-width="3"/><line x1="83.56508644180846" y1="266.75017091439037" x2="0" y2="0" stroke="red" stroke-width="2"/><line x1="400" y1="400" x2="400" y2="0" stroke="black" stroke-width="3"/><line x1="400" y1="0" x2="290.46256380829567" y2="55.99351540465189" stroke="red" stroke-width="2"/><line x1="290.46256380829567" y1="55.99351540465189" x2="0" y2="0" stroke="blue" stroke-width="2" stroke-dasharray="5,5"/><line x1="0" y1="0" x2="102.19035529373753" y2="105.85436908624834" stroke="red" stroke-width="2"/><line x1="400" y1="0" x2="0" y2="0" stroke="black" stroke-width="3"/><circle cx="290.46256380829567" cy="55.99351540465189" r="2" fill="gray"/><circle cx="239.15500685871058" cy="288.34156378600824" r="2" fill="gray"/><circle cx="172.50754458161867" cy="240.2949245541838" r="2" fill="gray"/><circle cx="332.22796595283893" cy="56.90386237123686" r="2" fill="gray"/><circle cx="266.38554227664406" cy="229.7097838534817" r="2" fill="gray"/><circle cx="164.17009602194787" cy="133.6858710562414" r="2" fill="gray"/><circle cx="119.83799919832727" cy="306.4479097298677" r="2" fill="gray"/><circle cx="292.8099492996131" cy="133.46947682546696" r="2" fill="gray"/><circle cx="294.96725177098017" cy="236.59375556064663" r="2" fill="gray"/><circle cx="83.56508644180846" cy="266.75017091439037" r="2" fill="gray"/><circle cx="102.19035529373753" cy="105.85436908624834" r="2" fill="gray"/></g></svg>