<svg xmlns="http://www.w3.org/2000/svg" viewBox="360.5286865234375 365.8817138671875 1863.53173828125 1863.529541015625"><line stroke="#000" opacity="1" x1="1292.2939453125" y1="521.176025390625" x2="515.822998046875" y2="521.176025390625" stroke-width="5.17647705078125"/><line stroke="#000" opacity="1" x1="1292.2939453125" y1="521.176025390625" x2="2068.76611328125" y2="521.176025390625" stroke-width="5.17647705078125"/><line stroke="#000" opacity="1" x1="1292.2939453125" y1="2074.116943359375" x2="515.822998046875" y2="2074.116943359375" stroke-width="5.17647705078125"/><line stroke="#000" opacity="1" x1="1292.2939453125" y1="2074.116943359375" x2="2068.76611328125" y2="2074.116943359375" stroke-width="5.17647705078125"/><line stroke="#000" opacity="1" x1="515.822998046875" y1="1297.64599609375" x2="515.822998046875" y2="2074.116943359375" stroke-width="5.17647705078125"/><line stroke="#000" opacity="1" x1="515.822998046875" y1="1297.64599609375" x2="515.822998046875" y2="521.176025390625" stroke-width="5.17647705078125"/><line stroke="#000" opacity="1" x1="2068.76611328125" y1="1297.64599609375" x2="2068.76611328125" y2="2074.116943359375" stroke-width="5.17647705078125"/><line stroke="#000" opacity="1" x1="2068.76611328125" y1="1297.64599609375" x2="2068.76611328125" y2="521.176025390625" stroke-width="5.17647705078125"/><line stroke="#f00" opacity="1" x1="904.0590209960938" y1="1685.8819580078125" x2="1680.529052734375" y2="1685.8819580078125" stroke-width="5.17647705078125"/><line stroke="#f00" opacity="1" x1="904.0590209960938" y1="909.4110107421875" x2="1680.529052734375" y2="909.4110107421875" stroke-width="5.17647705078125"/><line stroke="#f00" opacity="1" x1="515.822998046875" y1="521.176025390625" x2="904.0590209960938" y2="909.4110107421875" stroke-width="5.17647705078125"/><line stroke="#f00" opacity="1" x1="2068.76611328125" y1="521.176025390625" x2="1680.529052734375" y2="909.4110107421875" stroke-width="5.17647705078125"/><line stroke="#f00" opacity="1" x1="2068.76611328125" y1="2074.116943359375" x2="1680.529052734375" y2="1685.8819580078125" stroke-width="5.17647705078125"/><line stroke="#f00" opacity="1" x1="515.822998046875" y1="2074.116943359375" x2="904.0590209960938" y2="1685.8819580078125" stroke-width="5.17647705078125"/><line stroke="#f00" opacity="1" x1="904.0590209960938" y1="909.4110107421875" x2="904.0590209960938" y2="1685.8819580078125" stroke-width="5.17647705078125"/><line stroke="#f00" opacity="1" x1="1680.529052734375" y1="909.4110107421875" x2="1680.529052734375" y2="1685.8819580078125" stroke-width="5.17647705078125"/><line stroke="#00f" opacity="1" x1="2068.76611328125" y1="1297.64599609375" x2="1680.529052734375" y2="909.4110107421875" stroke-width="5.17647705078125"/><line stroke="#00f" opacity="1" x1="515.822998046875" y1="1297.64599609375" x2="904.0590209960938" y2="1685.8819580078125" stroke-width="5.17647705078125"/><line stroke="#00f" opacity="1" x1="904.0590209960938" y1="909.4110107421875" x2="1292.2939453125" y2="521.176025390625" stroke-width="5.17647705078125"/><line stroke="#00f" opacity="1" x1="1680.529052734375" y1="1685.8819580078125" x2="1292.2939453125" y2="2074.116943359375" stroke-width="5.17647705078125"/></svg>