<svg xmlns="http://www.w3.org/2000/svg" viewBox="369.5900909423828 229.02109069824218 706.2798400878906 706.3908325195313"><line stroke="#000" opacity="1" x1="518.68798828125" y1="287.8869934082031" x2="428.4590148925781" y2="288" stroke-width="1.962196756998698"/><line stroke="#000" opacity="1" x1="722.72900390625" y1="288" x2="790.1300048828125" y2="288" stroke-width="1.962196756998698"/><line stroke="#000" opacity="1" x1="722.72900390625" y1="288" x2="518.68798828125" y2="287.8869934082031" stroke-width="1.962196756998698"/><line stroke="#000" opacity="1" x1="790.1300048828125" y1="288" x2="1017.0029907226562" y2="288" stroke-width="1.962196756998698"/><line stroke="#000" opacity="1" x1="1017.0040283203125" y1="515.031982421875" x2="1017.0029907226562" y2="288" stroke-width="1.962196756998698"/><line stroke="#000" opacity="1" x1="1017.0009765625" y1="582.27001953125" x2="1017.0040283203125" y2="515.031982421875" stroke-width="1.962196756998698"/><line stroke="#000" opacity="1" x1="1017.0009765625" y1="582.27001953125" x2="1017.0029907226562" y2="876.5449829101562" stroke-width="1.962196756998698"/><line stroke="#000" opacity="1" x1="722.72900390625" y1="876.5430297851562" x2="655.4910278320312" y2="876.5460205078125" stroke-width="1.962196756998698"/><line stroke="#000" opacity="1" x1="722.72900390625" y1="876.5430297851562" x2="1017.0029907226562" y2="876.5449829101562" stroke-width="1.962196756998698"/><line stroke="#000" opacity="1" x1="655.4910278320312" y1="876.5460205078125" x2="428.4590148925781" y2="876.5440063476562" stroke-width="1.962196756998698"/><line stroke="#000" opacity="1" x1="428.45599365234375" y1="582.27099609375" x2="428.4590148925781" y2="649.6719970703125" stroke-width="1.962196756998698"/><line stroke="#000" opacity="1" x1="428.45599365234375" y1="582.27099609375" x2="428.4630126953125" y2="379.25" stroke-width="1.962196756998698"/><line stroke="#000" opacity="1" x1="428.4590148925781" y1="649.6719970703125" x2="428.4590148925781" y2="876.5440063476562" stroke-width="1.962196756998698"/><line stroke="#000" opacity="1" x1="428.4630126953125" y1="379.25" x2="428.4590148925781" y2="288" stroke-width="1.962196756998698"/><line stroke="#f00" opacity="1" x1="808.9219970703125" y1="668.4619750976562" x2="1017.0029907226562" y2="876.5449829101562" stroke-width="1.962196756998698"/><line stroke="#f00" opacity="1" x1="492.7040100097656" y1="352.2449951171875" x2="636.5369873046875" y2="496.0780029296875" stroke-width="1.962196756998698"/><line stroke="#f00" opacity="0.25" x1="722.7315062710079" y1="582.2720030850569" x2="625.0850219726562" y2="582.2750244140625" stroke-width="1.962196756998698"/><line stroke="#f00" opacity="0.25" x1="722.7315062710079" y1="582.2720030850569" x2="820.3790283203125" y2="582.2730102539062" stroke-width="1.962196756998698"/><line stroke="#f00" opacity="0.25" x1="722.7315062710079" y1="582.2720030850569" x2="722.72900390625" y2="484.6300048828125" stroke-width="1.962196756998698"/><line stroke="#f00" opacity="0.25" x1="722.7315062710079" y1="582.2720030850569" x2="722.7340087890625" y2="679.9199829101562" stroke-width="1.962196756998698"/><line stroke="#f00" opacity="1" x1="895.1110229492188" y1="582.27099609375" x2="1017.0029907226562" y2="876.5449829101562" stroke-width="1.962196756998698"/><line stroke="#f00" opacity="1" x1="864.2529907226562" y1="647.93798828125" x2="820.3790283203125" y2="582.2730102539062" stroke-width="1.962196756998698"/><line stroke="#f00" opacity="1" x1="864.2529907226562" y1="647.93798828125" x2="1017.0029907226562" y2="876.5449829101562" stroke-width="1.962196756998698"/><line stroke="#f00" opacity="1" x1="918.18798828125" y1="526.5609741210938" x2="895.1110229492188" y2="582.27099609375" stroke-width="1.962196756998698"/><line stroke="#f00" opacity="1" x1="938.052978515625" y1="479.6340026855469" x2="918.18798828125" y2="526.5609741210938" stroke-width="1.962196756998698"/><line stroke="#f00" opacity="1" x1="938.052978515625" y1="479.6340026855469" x2="1017.0029907226562" y2="288" stroke-width="1.962196756998698"/><line stroke="#f00" opacity="1" x1="778.6019897460938" y1="386.81500244140625" x2="722.72900390625" y2="409.89300537109375" stroke-width="1.962196756998698"/><line stroke="#f00" opacity="1" x1="825.3709716796875" y1="366.95599365234375" x2="778.6019897460938" y2="386.81500244140625" stroke-width="1.962196756998698"/><line stroke="#f00" opacity="1" x1="825.3709716796875" y1="366.95599365234375" x2="1017.0029907226562" y2="288" stroke-width="1.962196756998698"/><line stroke="#f00" opacity="1" x1="907.4730224609375" y1="499.7699890136719" x2="850.31201171875" y2="537.4769897460938" stroke-width="1.962196756998698"/><line stroke="#f00" opacity="1" x1="907.4730224609375" y1="499.7699890136719" x2="938.052978515625" y2="479.6340026855469" stroke-width="1.962196756998698"/><line stroke="#f00" opacity="1" x1="722.72998046875" y1="754.6519775390625" x2="1017.0029907226562" y2="876.5449829101562" stroke-width="1.962196756998698"/><line stroke="#f00" opacity="1" x1="788.3980102539062" y1="723.7960205078125" x2="722.7340087890625" y2="679.9199829101562" stroke-width="1.962196756998698"/><line stroke="#f00" opacity="1" x1="788.3980102539062" y1="723.7960205078125" x2="1017.0029907226562" y2="876.5449829101562" stroke-width="1.962196756998698"/><line stroke="#f00" opacity="1" x1="667.02001953125" y1="777.72998046875" x2="722.72998046875" y2="754.6519775390625" stroke-width="1.962196756998698"/><line stroke="#f00" opacity="1" x1="620.0919799804688" y1="797.593994140625" x2="667.02001953125" y2="777.72998046875" stroke-width="1.962196756998698"/><line stroke="#f00" opacity="1" x1="620.0919799804688" y1="797.593994140625" x2="428.4590148925781" y2="876.5440063476562" stroke-width="1.962196756998698"/><line stroke="#f00" opacity="1" x1="527.2730102539062" y1="638.1430053710938" x2="550.3469848632812" y2="582.27001953125" stroke-width="1.962196756998698"/><line stroke="#f00" opacity="1" x1="507.4100036621094" y1="684.9169921875" x2="527.2730102539062" y2="638.1430053710938" stroke-width="1.962196756998698"/><line stroke="#f00" opacity="1" x1="507.4100036621094" y1="684.9169921875" x2="428.4590148925781" y2="876.5440063476562" stroke-width="1.962196756998698"/><line stroke="#f00" opacity="1" x1="640.22900390625" y1="767.0159912109375" x2="677.9290161132812" y2="709.85498046875" stroke-width="1.962196756998698"/><line stroke="#f00" opacity="1" x1="640.22900390625" y1="767.0159912109375" x2="620.0919799804688" y2="797.593994140625" stroke-width="1.962196756998698"/><line stroke="#f00" opacity="1" x1="519.2020263671875" y1="325.5920104980469" x2="722.72900390625" y2="409.89300537109375" stroke-width="1.962196756998698"/><line stroke="#f00" opacity="1" x1="519.2020263671875" y1="325.5920104980469" x2="428.4590148925781" y2="288" stroke-width="1.962196756998698"/><line stroke="#f00" opacity="1" x1="657.0609741210938" y1="440.74700927734375" x2="498.7229919433594" y2="335.2149963378906" stroke-width="1.962196756998698"/><line stroke="#f00" opacity="1" x1="657.0609741210938" y1="440.74700927734375" x2="722.72900390625" y2="484.6300048828125" stroke-width="1.962196756998698"/><line stroke="#f00" opacity="1" x1="498.7229919433594" y1="335.2149963378906" x2="428.4590148925781" y2="288" stroke-width="1.962196756998698"/><line stroke="#f00" opacity="1" x1="466.218994140625" y1="378.9389953613281" x2="550.3469848632812" y2="582.27001953125" stroke-width="1.962196756998698"/><line stroke="#f00" opacity="1" x1="466.218994140625" y1="378.9389953613281" x2="428.4590148925781" y2="288" stroke-width="1.962196756998698"/><line stroke="#f00" opacity="1" x1="581.2030029296875" y1="516.6019897460938" x2="475.72698974609375" y2="358.7080078125" stroke-width="1.962196756998698"/><line stroke="#f00" opacity="1" x1="581.2030029296875" y1="516.6019897460938" x2="625.0850219726562" y2="582.2750244140625" stroke-width="1.962196756998698"/><line stroke="#f00" opacity="1" x1="475.72698974609375" y1="358.7080078125" x2="428.4590148925781" y2="288" stroke-width="1.962196756998698"/><line stroke="#f00" opacity="1" x1="805.3930053710938" y1="397.531005859375" x2="767.530029296875" y2="454.6929931640625" stroke-width="1.962196756998698"/><line stroke="#f00" opacity="1" x1="805.3930053710938" y1="397.531005859375" x2="825.3709716796875" y2="366.95599365234375" stroke-width="1.962196756998698"/><line stroke="#f00" opacity="0.75" x1="1017.0009765625" y1="582.27001953125" x2="963.3629760742188" y2="606.8880004882812" stroke-width="1.962196756998698"/><line stroke="#f00" opacity="1" x1="895.1110229492188" y1="582.27099609375" x2="864.2529907226562" y2="647.93798828125" stroke-width="1.962196756998698"/><line stroke="#f00" opacity="0.75" x1="722.72900390625" y1="876.5430297851562" x2="747.3469848632812" y2="822.905029296875" stroke-width="1.962196756998698"/><line stroke="#f00" opacity="1" x1="722.72998046875" y1="754.6519775390625" x2="788.3980102539062" y2="723.7960205078125" stroke-width="1.962196756998698"/><line stroke="#f00" opacity="0.75" x1="722.72900390625" y1="288" x2="698.1119995117188" y2="341.63800048828125" stroke-width="1.962196756998698"/><line stroke="#f00" opacity="1" x1="722.72900390625" y1="409.89300537109375" x2="657.0609741210938" y2="440.74700927734375" stroke-width="1.962196756998698"/><line stroke="#f00" opacity="0.75" x1="428.45599365234375" y1="582.27099609375" x2="482.093994140625" y2="557.6539916992188" stroke-width="1.962196756998698"/><line stroke="#f00" opacity="1" x1="550.3469848632812" y1="582.27001953125" x2="581.2030029296875" y2="516.6019897460938" stroke-width="1.962196756998698"/><line stroke="#f00" opacity="1" x1="537.989990234375" y1="664.9340209960938" x2="595.1500244140625" y2="627.0770263671875" stroke-width="1.962196756998698"/><line stroke="#f00" opacity="1" x1="537.989990234375" y1="664.9340209960938" x2="507.4100036621094" y2="684.9169921875" stroke-width="1.962196756998698"/><line stroke="#f00" opacity="0.25" x1="537.989990234375" y1="664.9340209960938" x2="640.22900390625" y2="767.0159912109375" stroke-width="1.962196756998698"/><line stroke="#f00" opacity="0.25" x1="667.02001953125" y1="777.72998046875" x2="655.4910278320312" y2="804.3629760742188" stroke-width="1.962196756998698"/><line stroke="#f00" opacity="0.25" x1="527.2730102539062" y1="638.1430053710938" x2="500.6419982910156" y2="649.6719970703125" stroke-width="1.962196756998698"/><line stroke="#f00" opacity="0.25" x1="805.3930053710938" y1="397.531005859375" x2="907.4730224609375" y2="499.7699890136719" stroke-width="1.962196756998698"/><line stroke="#f00" opacity="0.25" x1="918.18798828125" y1="526.5609741210938" x2="944.8209838867188" y2="515.031982421875" stroke-width="1.962196756998698"/><line stroke="#f00" opacity="0.25" x1="778.6019897460938" y1="386.81500244140625" x2="790.1300048828125" y2="360.1830139160156" stroke-width="1.962196756998698"/><line stroke="#f00" opacity="1" x1="511.17498779296875" y1="304.2550048828125" x2="519.2020263671875" y2="325.5920104980469" stroke-width="1.962196756998698"/><line stroke="#f00" opacity="1" x1="498.7229919433594" y1="335.2149963378906" x2="492.7040100097656" y2="352.2449951171875" stroke-width="1.962196756998698"/><line stroke="#f00" opacity="1" x1="475.72698974609375" y1="358.7080078125" x2="492.7040100097656" y2="352.2449951171875" stroke-width="1.962196756998698"/><line stroke="#f00" opacity="1" x1="466.218994140625" y1="378.9389953613281" x2="445.06201171875" y2="371.6319885253906" stroke-width="1.962196756998698"/><line stroke="#f00" opacity="1" x1="722.72900390625" y1="484.6300048828125" x2="722.72900390625" y2="409.89300537109375" stroke-width="1.962196756998698"/><line stroke="#f00" opacity="1" x1="625.0850219726562" y1="582.2750244140625" x2="550.3469848632812" y2="582.27001953125" stroke-width="1.962196756998698"/><line stroke="#f00" opacity="1" x1="820.3790283203125" y1="582.2730102539062" x2="895.1110229492188" y2="582.27099609375" stroke-width="1.962196756998698"/><line stroke="#f00" opacity="1" x1="722.7340087890625" y1="679.9199829101562" x2="722.72998046875" y2="754.6519775390625" stroke-width="1.962196756998698"/><line stroke="#00f" opacity="1" x1="944.8209838867188" y1="515.031982421875" x2="938.052978515625" y2="479.6340026855469" stroke-width="1.962196756998698"/><line stroke="#00f" opacity="1" x1="963.3629760742188" y1="606.8880004882812" x2="944.8209838867188" y2="515.031982421875" stroke-width="1.962196756998698"/><line stroke="#00f" opacity="1" x1="963.3629760742188" y1="606.8880004882812" x2="1017.0029907226562" y2="876.5449829101562" stroke-width="1.962196756998698"/><line stroke="#00f" opacity="1" x1="767.530029296875" y1="454.6929931640625" x2="722.72900390625" y2="409.89300537109375" stroke-width="1.962196756998698"/><line stroke="#00f" opacity="1" x1="850.31201171875" y1="537.4769897460938" x2="767.530029296875" y2="454.6929931640625" stroke-width="1.962196756998698"/><line stroke="#00f" opacity="1" x1="850.31201171875" y1="537.4769897460938" x2="895.1110229492188" y2="582.27099609375" stroke-width="1.962196756998698"/><line stroke="#00f" opacity="1" x1="820.3790283203125" y1="582.2730102539062" x2="850.31201171875" y2="537.4769897460938" stroke-width="1.962196756998698"/><line stroke="#00f" opacity="1" x1="655.4910278320312" y1="804.3629760742188" x2="620.0919799804688" y2="797.593994140625" stroke-width="1.962196756998698"/><line stroke="#00f" opacity="1" x1="747.3469848632812" y1="822.905029296875" x2="655.4910278320312" y2="804.3629760742188" stroke-width="1.962196756998698"/><line stroke="#00f" opacity="1" x1="747.3469848632812" y1="822.905029296875" x2="1017.0029907226562" y2="876.5449829101562" stroke-width="1.962196756998698"/><line stroke="#00f" opacity="1" x1="595.1500244140625" y1="627.0770263671875" x2="550.3469848632812" y2="582.27001953125" stroke-width="1.962196756998698"/><line stroke="#00f" opacity="1" x1="677.9290161132812" y1="709.85498046875" x2="595.1500244140625" y2="627.0770263671875" stroke-width="1.962196756998698"/><line stroke="#00f" opacity="1" x1="677.9290161132812" y1="709.85498046875" x2="722.72998046875" y2="754.6519775390625" stroke-width="1.962196756998698"/><line stroke="#00f" opacity="1" x1="722.7340087890625" y1="679.9199829101562" x2="677.9290161132812" y2="709.85498046875" stroke-width="1.962196756998698"/><line stroke="#00f" opacity="1" x1="698.1119995117188" y1="341.63800048828125" x2="790.1300048828125" y2="360.1830139160156" stroke-width="1.962196756998698"/><line stroke="#00f" opacity="1" x1="698.1119995117188" y1="341.63800048828125" x2="511.17498779296875" y2="304.2550048828125" stroke-width="1.962196756998698"/><line stroke="#00f" opacity="1" x1="790.1300048828125" y1="360.1830139160156" x2="825.3709716796875" y2="366.95599365234375" stroke-width="1.962196756998698"/><line stroke="#00f" opacity="1" x1="511.17498779296875" y1="304.2550048828125" x2="428.4590148925781" y2="288" stroke-width="1.962196756998698"/><line stroke="#00f" opacity="1" x1="482.093994140625" y1="557.6539916992188" x2="500.6419982910156" y2="649.6719970703125" stroke-width="1.962196756998698"/><line stroke="#00f" opacity="1" x1="482.093994140625" y1="557.6539916992188" x2="445.06201171875" y2="371.6319885253906" stroke-width="1.962196756998698"/><line stroke="#00f" opacity="1" x1="500.6419982910156" y1="649.6719970703125" x2="507.4100036621094" y2="684.9169921875" stroke-width="1.962196756998698"/><line stroke="#00f" opacity="1" x1="445.06201171875" y1="371.6319885253906" x2="428.4590148925781" y2="288" stroke-width="1.962196756998698"/><line stroke="#00f" opacity="1" x1="722.72900390625" y1="484.6300048828125" x2="767.530029296875" y2="454.6929931640625" stroke-width="1.962196756998698"/><line stroke="#00f" opacity="0.75" x1="963.3629760742188" y1="606.8880004882812" x2="895.1110229492188" y2="582.27099609375" stroke-width="1.962196756998698"/><line stroke="#00f" opacity="1" x1="864.2529907226562" y1="647.93798828125" x2="808.9219970703125" y2="668.4619750976562" stroke-width="1.962196756998698"/><line stroke="#00f" opacity="0.75" x1="747.3469848632812" y1="822.905029296875" x2="722.72998046875" y2="754.6519775390625" stroke-width="1.962196756998698"/><line stroke="#00f" opacity="1" x1="788.3980102539062" y1="723.7960205078125" x2="808.9219970703125" y2="668.4619750976562" stroke-width="1.962196756998698"/><line stroke="#00f" opacity="0.75" x1="698.1119995117188" y1="341.63800048828125" x2="722.72900390625" y2="409.89300537109375" stroke-width="1.962196756998698"/><line stroke="#00f" opacity="1" x1="657.0609741210938" y1="440.74700927734375" x2="636.5369873046875" y2="496.0780029296875" stroke-width="1.962196756998698"/><line stroke="#00f" opacity="0.75" x1="482.093994140625" y1="557.6539916992188" x2="550.3469848632812" y2="582.27001953125" stroke-width="1.962196756998698"/><line stroke="#00f" opacity="1" x1="581.2030029296875" y1="516.6019897460938" x2="636.5369873046875" y2="496.0780029296875" stroke-width="1.962196756998698"/><line stroke="#00f" opacity="1" x1="625.0850219726562" y1="582.2750244140625" x2="595.1500244140625" y2="627.0770263671875" stroke-width="1.962196756998698"/><line stroke="#00f" opacity="0.25" x1="667.02001953125" y1="777.72998046875" x2="640.22900390625" y2="767.0159912109375" stroke-width="1.962196756998698"/><line stroke="#00f" opacity="0.25" x1="655.4910278320312" y1="876.5460205078125" x2="655.4910278320312" y2="804.3629760742188" stroke-width="1.962196756998698"/><line stroke="#00f" opacity="0.25" x1="527.2730102539062" y1="638.1430053710938" x2="537.989990234375" y2="664.9340209960938" stroke-width="1.962196756998698"/><line stroke="#00f" opacity="0.25" x1="428.4590148925781" y1="649.6719970703125" x2="500.6419982910156" y2="649.6719970703125" stroke-width="1.962196756998698"/><line stroke="#00f" opacity="0.25" x1="918.18798828125" y1="526.5609741210938" x2="907.4730224609375" y2="499.7699890136719" stroke-width="1.962196756998698"/><line stroke="#00f" opacity="0.25" x1="1017.0040283203125" y1="515.031982421875" x2="944.8209838867188" y2="515.031982421875" stroke-width="1.962196756998698"/><line stroke="#00f" opacity="0.25" x1="778.6019897460938" y1="386.81500244140625" x2="805.3930053710938" y2="397.531005859375" stroke-width="1.962196756998698"/><line stroke="#00f" opacity="0.25" x1="790.1300048828125" y1="288" x2="790.1300048828125" y2="360.1830139160156" stroke-width="1.962196756998698"/><line stroke="#00f" opacity="1" x1="518.68798828125" y1="287.8869934082031" x2="511.17498779296875" y2="304.2550048828125" stroke-width="1.962196756998698"/><line stroke="#00f" opacity="1" x1="519.2020263671875" y1="325.5920104980469" x2="498.7229919433594" y2="335.2149963378906" stroke-width="1.962196756998698"/><line stroke="#00f" opacity="1" x1="445.06201171875" y1="371.6319885253906" x2="428.4630126953125" y2="379.25" stroke-width="1.962196756998698"/><line stroke="#00f" opacity="1" x1="475.72698974609375" y1="358.7080078125" x2="466.218994140625" y2="378.9389953613281" stroke-width="1.962196756998698"/><line stroke="#00f" opacity="1" x1="492.7040100097656" y1="352.2449951171875" x2="428.4590148925781" y2="288" stroke-width="1.962196756998698"/><line stroke="#00f" opacity="0.5" x1="722.7315062710079" y1="582.2720030850569" x2="636.5369873046875" y2="496.0780029296875" stroke-width="1.962196756998698"/><line stroke="#00f" opacity="0.5" x1="722.7315062710079" y1="582.2720030850569" x2="808.9219970703125" y2="668.4619750976562" stroke-width="1.962196756998698"/><line stroke="#ff0" opacity="1" x1="625.0850219726562" y1="582.2750244140625" x2="722.7340087890625" y2="679.9199829101562" stroke-width="1.962196756998698"/><line stroke="#ff0" opacity="1" x1="722.72900390625" y1="484.6300048828125" x2="820.3790283203125" y2="582.2730102539062" stroke-width="1.962196756998698"/><line stroke="#ff0" opacity="1" x1="722.7340087890625" y1="679.9199829101562" x2="808.9219970703125" y2="668.4619750976562" stroke-width="1.962196756998698"/><line stroke="#ff0" opacity="1" x1="808.9219970703125" y1="668.4619750976562" x2="820.3790283203125" y2="582.2730102539062" stroke-width="1.962196756998698"/><line stroke="#ff0" opacity="1" x1="722.72900390625" y1="484.6300048828125" x2="636.5369873046875" y2="496.0780029296875" stroke-width="1.962196756998698"/><line stroke="#ff0" opacity="1" x1="636.5369873046875" y1="496.0780029296875" x2="625.0850219726562" y2="582.2750244140625" stroke-width="1.962196756998698"/><line stroke="#ff0" opacity="1" x1="428.4590148925781" y1="876.5440063476562" x2="537.989990234375" y2="664.9340209960938" stroke-width="1.962196756998698"/><line stroke="#ff0" opacity="1" x1="640.22900390625" y1="767.0159912109375" x2="428.4590148925781" y2="876.5440063476562" stroke-width="1.962196756998698"/><line stroke="#ff0" opacity="1" x1="907.4730224609375" y1="499.7699890136719" x2="1017.0029907226562" y2="288" stroke-width="1.962196756998698"/><line stroke="#ff0" opacity="1" x1="805.3930053710938" y1="397.531005859375" x2="1017.0029907226562" y2="288" stroke-width="1.962196756998698"/></svg>