<svg width="500" height="500" xmlns="http://www.w3.org/2000/svg"><rect width="500" height="500" fill="white"/><g transform="translate(20, 20) scale(1.15, 1.15)"><line x1="119.1769547325103" y1="212.47873799725653" x2="188.1289437585734" y2="254.92866941015086" stroke="blue" stroke-width="2" stroke-dasharray="5,5"/><line x1="188.1289437585734" y1="254.92866941015086" x2="172.36488340192042" y2="193.40329218107" stroke="red" stroke-width="2"/><line x1="152.64197530864197" y1="110.63511659807956" x2="119.1769547325103" y2="212.47873799725653" stroke="red" stroke-width="2"/><line x1="150.842502980793" y1="99.27671152934596" x2="152.64197530864197" y2="110.63511659807956" stroke="blue" stroke-width="2" stroke-dasharray="5,5"/><line x1="257.461700007154" y1="115.87326141362934" x2="150.842502980793" y2="99.27671152934596" stroke="blue" stroke-width="2" stroke-dasharray="5,5"/><line x1="152.64197530864197" y1="110.63511659807956" x2="125.4067966553236" y2="105.13627299479646" stroke="red" stroke-width="2"/><line x1="125.4067966553236" y1="105.13627299479646" x2="119.1769547325103" y2="212.47873799725653" stroke="blue" stroke-width="2" stroke-dasharray="5,5"/><line x1="172.36488340192042" y1="193.40329218107" x2="257.461700007154" y2="115.87326141362934" stroke="red" stroke-width="2"/><line x1="150.842502980793" y1="99.27671152934596" x2="125.4067966553236" y2="105.13627299479646" stroke="blue" stroke-width="2" stroke-dasharray="5,5"/><line x1="125.4067966553236" y1="105.13627299479646" x2="48.78940656191385" y2="146.03656203304678" stroke="red" stroke-width="2"/><line x1="48.78940656191385" y1="146.03656203304678" x2="119.1769547325103" y2="212.47873799725653" stroke="blue" stroke-width="2" stroke-dasharray="5,5"/><line x1="188.1289437585734" y1="254.92866941015086" x2="257.461700007154" y2="115.87326141362934" stroke="red" stroke-width="2"/><line x1="257.461700007154" y1="115.87326141362934" x2="173.67821442911216" y2="45.00295990883638" stroke="blue" stroke-width="2" stroke-dasharray="5,5"/><line x1="173.67821442911216" y1="45.00295990883638" x2="150.842502980793" y2="99.27671152934596" stroke="red" stroke-width="2"/><line x1="173.67821442911216" y1="45.00295990883638" x2="125.4067966553236" y2="105.13627299479646" stroke="blue" stroke-width="2" stroke-dasharray="5,5"/><line x1="125.4067966553236" y1="105.13627299479646" x2="0" y2="0" stroke="red" stroke-width="2"/><line x1="0" y1="0" x2="48.78940656191385" y2="146.03656203304678" stroke="blue" stroke-width="2" stroke-dasharray="5,5"/><line x1="351.8310042916752" y1="143.83285841644548" x2="257.461700007154" y2="115.87326141362934" stroke="blue" stroke-width="2" stroke-dasharray="5,5"/><line x1="257.461700007154" y1="115.87326141362934" x2="269.5915641344793" y2="44.595730803079235" stroke="red" stroke-width="2"/><line x1="269.5915641344793" y1="44.595730803079235" x2="173.67821442911216" y2="45.00295990883638" stroke="blue" stroke-width="2" stroke-dasharray="5,5"/><line x1="351.8310042916752" y1="143.83285841644548" x2="269.5915641344793" y2="44.595730803079235" stroke="red" stroke-width="2"/><line x1="188.1289437585734" y1="254.92866941015086" x2="400" y2="400" stroke="blue" stroke-width="2" stroke-dasharray="5,5"/><line x1="400" y1="400" x2="351.8310042916752" y2="143.83285841644548" stroke="red" stroke-width="2"/><line x1="119.1769547325103" y1="212.47873799725653" x2="0" y2="400" stroke="blue" stroke-width="2" stroke-dasharray="5,5"/><line x1="0" y1="400" x2="188.1289437585734" y2="254.92866941015086" stroke="red" stroke-width="2"/><line x1="48.78940656191385" y1="146.03656203304678" x2="0" y2="400" stroke="blue" stroke-width="2" stroke-dasharray="5,5"/><line x1="173.67821442911216" y1="45.00295990883638" x2="0" y2="0" stroke="red" stroke-width="2"/><line x1="0" y1="0" x2="0" y2="400" stroke="black" stroke-width="3"/><line x1="400" y1="0" x2="0" y2="0" stroke="black" stroke-width="3"/><line x1="173.67821442911216" y1="45.00295990883638" x2="400" y2="0" stroke="blue" stroke-width="2" stroke-dasharray="5,5"/><line x1="0" y1="400" x2="400" y2="400" stroke="black" stroke-width="3"/><line x1="351.8310042916752" y1="143.83285841644548" x2="400" y2="0" stroke="blue" stroke-width="2" stroke-dasharray="5,5"/><line x1="400" y1="0" x2="269.5915641344793" y2="44.595730803079235" stroke="red" stroke-width="2"/><line x1="400" y1="400" x2="400" y2="0" stroke="black" stroke-width="3"/><circle cx="173.67821442911216" cy="45.00295990883638" r="2" fill="gray"/><circle cx="152.64197530864197" cy="110.63511659807956" r="2" fill="gray"/><circle cx="125.4067966553236" cy="105.13627299479646" r="2" fill="gray"/><circle cx="269.5915641344793" cy="44.595730803079235" r="2" fill="gray"/><circle cx="48.78940656191385" cy="146.03656203304678" r="2" fill="gray"/><circle cx="257.461700007154" cy="115.87326141362934" r="2" fill="gray"/><circle cx="188.1289437585734" cy="254.92866941015086" r="2" fill="gray"/><circle cx="119.1769547325103" cy="212.47873799725653" r="2" fill="gray"/><circle cx="172.36488340192042" cy="193.40329218107" r="2" fill="gray"/><circle cx="351.8310042916752" cy="143.83285841644548" r="2" fill="gray"/><circle cx="150.842502980793" cy="99.27671152934596" r="2" fill="gray"/></g></svg>