<svg width="500" height="500" xmlns="http://www.w3.org/2000/svg"><rect width="500" height="500" fill="white"/><g transform="translate(20, 20) scale(1.15, 1.15)"><line x1="273.85459533607684" y1="149.21399176954733" x2="355.9795543022826" y2="103.70074150974871" stroke="blue" stroke-width="2" stroke-dasharray="5,5"/><line x1="355.9795543022826" y1="103.70074150974871" x2="173.45552650877028" y2="83.19832753302883" stroke="red" stroke-width="2"/><line x1="173.45552650877028" y1="83.19832753302883" x2="151.3465616117193" y2="123.62482122817086" stroke="blue" stroke-width="2" stroke-dasharray="5,5"/><line x1="151.3465616117193" y1="123.62482122817086" x2="227.34640652882942" y2="145.34859253566097" stroke="red" stroke-width="2"/><line x1="352.97367929186004" y1="170.47471044836098" x2="273.85459533607684" y2="149.21399176954733" stroke="red" stroke-width="2"/><line x1="352.97367929186004" y1="170.47471044836098" x2="355.9795543022826" y2="103.70074150974871" stroke="red" stroke-width="2"/><line x1="147.42201845029118" y1="328.2182466412281" x2="336.33744855967075" y2="182.23182441700962" stroke="blue" stroke-width="2" stroke-dasharray="5,5"/><line x1="273.85459533607684" y1="149.21399176954733" x2="147.42201845029118" y2="328.2182466412281" stroke="red" stroke-width="2"/><line x1="227.34640652882942" y1="145.34859253566097" x2="147.42201845029118" y2="328.2182466412281" stroke="blue" stroke-width="2" stroke-dasharray="5,5"/><line x1="352.97367929186004" y1="170.47471044836098" x2="400" y2="0" stroke="red" stroke-width="2"/><line x1="400" y1="0" x2="355.9795543022826" y2="103.70074150974871" stroke="blue" stroke-width="2" stroke-dasharray="5,5"/><line x1="400" y1="0" x2="173.45552650877028" y2="83.19832753302883" stroke="red" stroke-width="2"/><line x1="100.10425240054869" y1="97.27434842249659" x2="151.3465616117193" y2="123.62482122817086" stroke="red" stroke-width="2"/><line x1="0" y1="0" x2="100.10425240054869" y2="97.27434842249659" stroke="blue" stroke-width="2" stroke-dasharray="5,5"/><line x1="173.45552650877028" y1="83.19832753302883" x2="0" y2="0" stroke="red" stroke-width="2"/><line x1="96.91393947880968" y1="160.85134261149483" x2="151.3465616117193" y2="123.62482122817086" stroke="red" stroke-width="2"/><line x1="96.91393947880968" y1="160.85134261149483" x2="227.34640652882942" y2="145.34859253566097" stroke="blue" stroke-width="2" stroke-dasharray="5,5"/><line x1="76.2154414299912" y1="252.42775415970905" x2="96.91393947880968" y2="160.85134261149483" stroke="blue" stroke-width="2" stroke-dasharray="5,5"/><line x1="96.91393947880968" y1="160.85134261149483" x2="0" y2="0" stroke="red" stroke-width="2"/><line x1="76.2154414299912" y1="252.42775415970905" x2="227.34640652882942" y2="145.34859253566097" stroke="blue" stroke-width="2" stroke-dasharray="5,5"/><line x1="400" y1="0" x2="0" y2="0" stroke="black" stroke-width="3"/><line x1="76.2154414299912" y1="252.42775415970905" x2="147.42201845029118" y2="328.2182466412281" stroke="blue" stroke-width="2" stroke-dasharray="5,5"/><line x1="336.33744855967075" y1="182.23182441700962" x2="400" y2="400" stroke="red" stroke-width="2"/><line x1="400" y1="400" x2="352.97367929186004" y2="170.47471044836098" stroke="blue" stroke-width="2" stroke-dasharray="5,5"/><line x1="400" y1="400" x2="400" y2="0" stroke="black" stroke-width="3"/><line x1="147.42201845029118" y1="328.2182466412281" x2="400" y2="400" stroke="blue" stroke-width="2" stroke-dasharray="5,5"/><line x1="76.2154414299912" y1="252.42775415970905" x2="0" y2="400" stroke="red" stroke-width="2"/><line x1="0" y1="400" x2="147.42201845029118" y2="328.2182466412281" stroke="blue" stroke-width="2" stroke-dasharray="5,5"/><line x1="0" y1="400" x2="400" y2="400" stroke="black" stroke-width="3"/><line x1="0" y1="0" x2="0" y2="400" stroke="black" stroke-width="3"/><circle cx="151.3465616117193" cy="123.62482122817086" r="2" fill="gray"/><circle cx="355.9795543022826" cy="103.70074150974871" r="2" fill="gray"/><circle cx="76.2154414299912" cy="252.42775415970905" r="2" fill="gray"/><circle cx="173.45552650877028" cy="83.19832753302883" r="2" fill="gray"/><circle cx="352.97367929186004" cy="170.47471044836098" r="2" fill="gray"/><circle cx="273.85459533607684" cy="149.21399176954733" r="2" fill="gray"/><circle cx="227.34640652882942" cy="145.34859253566097" r="2" fill="gray"/><circle cx="96.91393947880968" cy="160.85134261149483" r="2" fill="gray"/><circle cx="147.42201845029118" cy="328.2182466412281" r="2" fill="gray"/><circle cx="100.10425240054869" cy="97.27434842249659" r="2" fill="gray"/><circle cx="336.33744855967075" cy="182.23182441700962" r="2" fill="gray"/></g></svg>